<?xml version="1.0" encoding="UTF-8"?>
<svg xmlns="http://www.w3.org/2000/svg" width="240" height="240" viewBox="0 0 240 240" fill="none">
  <rect x="52" y="48" width="136" height="144" rx="20" fill="#EFF6FF" stroke="#1F2937" stroke-width="6"/>
  <path d="M84 84H156" stroke="#1F2937" stroke-width="8" stroke-linecap="round"/>
  <path d="M84 114H156" stroke="#1F2937" stroke-width="8" stroke-linecap="round"/>
  <path d="M84 144H132" stroke="#1F2937" stroke-width="8" stroke-linecap="round"/>
  <path d="M84 174H116" stroke="#1F2937" stroke-width="8" stroke-linecap="round"/>
  <path d="M62 100C62 90.0589 70.059 82 80 82H160C169.941 82 178 90.0589 178 100V156C178 165.941 169.941 174 160 174H80C70.059 174 62 165.941 62 156V100Z" fill="#D1D5DB" opacity="0.24"/>
  <path d="M106 46H134C139.523 46 144 50.4771 144 56V64H96V56C96 50.4771 100.477 46 106 46Z" fill="#F8FAFC" stroke="#1F2937" stroke-width="6"/>
  <path d="M62 132L74 122L92 140L118 108L146 150L178 116" stroke="#0F172A" stroke-width="8" stroke-linecap="round" stroke-linejoin="round" opacity="0.8"/>
  <path d="M86 62H154" stroke="#2563EB" stroke-width="5" stroke-linecap="round" opacity="0.9"/>
</svg>
